<?xml version="1.0" encoding="UTF-8" standalone="no"?>
<!-- Created with Inkscape (http://www.inkscape.org/) -->

<svg
   xmlns:dc="http://purl.org/dc/elements/1.1/"
   xmlns:cc="http://creativecommons.org/ns#"
   xmlns:rdf="http://www.w3.org/1999/02/22-rdf-syntax-ns#"
   xmlns:svg="http://www.w3.org/2000/svg"
   xmlns="http://www.w3.org/2000/svg"
   xmlns:xlink="http://www.w3.org/1999/xlink"
   xmlns:sodipodi="http://sodipodi.sourceforge.net/DTD/sodipodi-0.dtd"
   xmlns:inkscape="http://www.inkscape.org/namespaces/inkscape"
   width="744.09448819"
   height="1052.3622047"
   id="svg2"
   version="1.1"
   inkscape:version="0.48.3.1 r9886"
   sodipodi:docname="新建文档 1">
  <defs
     id="defs4">
    <linearGradient
       inkscape:collect="always"
       id="linearGradient3815">
      <stop
         style="stop-color:#ffffff;stop-opacity:1;"
         offset="0"
         id="stop3817" />
      <stop
         style="stop-color:#ffffff;stop-opacity:0;"
         offset="1"
         id="stop3819" />
    </linearGradient>
    <linearGradient
       inkscape:collect="always"
       id="linearGradient3773">
      <stop
         style="stop-color:#000000;stop-opacity:1;"
         offset="0"
         id="stop3775" />
      <stop
         style="stop-color:#000000;stop-opacity:0;"
         offset="1"
         id="stop3777" />
    </linearGradient>
    <linearGradient
       inkscape:collect="always"
       xlink:href="#linearGradient3773"
       id="linearGradient3779"
       x1="1094.717"
       y1="-329.52652"
       x2="2412.5327"
       y2="987.7124"
       gradientUnits="userSpaceOnUse"
       gradientTransform="matrix(0.97903933,0,0,1,-1858.141,80.812204)" />
    <linearGradient
       inkscape:collect="always"
       xlink:href="#linearGradient3773-4"
       id="linearGradient3779-7"
       x1="1094.717"
       y1="-329.52652"
       x2="2412.5327"
       y2="987.7124"
       gradientUnits="userSpaceOnUse"
       gradientTransform="matrix(0.98104906,0,0,1,-1477.001,8.0812209)" />
    <linearGradient
       inkscape:collect="always"
       id="linearGradient3773-4">
      <stop
         style="stop-color:#000000;stop-opacity:1;"
         offset="0"
         id="stop3775-0" />
      <stop
         style="stop-color:#000000;stop-opacity:0;"
         offset="1"
         id="stop3777-9" />
    </linearGradient>
    <linearGradient
       inkscape:collect="always"
       xlink:href="#linearGradient3815"
       id="linearGradient3821"
       x1="690.65594"
       y1="1682.6974"
       x2="683.15155"
       y2="769.51947"
       gradientUnits="userSpaceOnUse"
       gradientTransform="matrix(0.9930067,0,0,0.9942277,-380.80251,81.647791)" />
    <linearGradient
       inkscape:collect="always"
       xlink:href="#linearGradient3773"
       id="linearGradient3828"
       gradientUnits="userSpaceOnUse"
       gradientTransform="matrix(0.97903933,0,0,1,-1858.141,80.812204)"
       x1="1094.717"
       y1="-329.52652"
       x2="2412.5327"
       y2="987.7124" />
    <linearGradient
       inkscape:collect="always"
       xlink:href="#linearGradient3815"
       id="linearGradient3830"
       gradientUnits="userSpaceOnUse"
       gradientTransform="matrix(0.9930067,0,0,0.9942277,-380.80251,81.647791)"
       x1="690.65594"
       y1="1682.6974"
       x2="683.15155"
       y2="769.51947" />
    <filter
       inkscape:collect="always"
       id="filter3888">
      <feGaussianBlur
         inkscape:collect="always"
         stdDeviation="2.2949911"
         id="feGaussianBlur3890" />
    </filter>
    <filter
       inkscape:collect="always"
       id="filter4121"
       x="-0.32210526"
       width="1.6442105"
       y="-0.32210526"
       height="1.6442105">
      <feGaussianBlur
         inkscape:collect="always"
         stdDeviation="71.582598"
         id="feGaussianBlur4123" />
    </filter>
  </defs>
  <sodipodi:namedview
     id="base"
     pagecolor="#ffffff"
     bordercolor="#666666"
     borderopacity="1.0"
     inkscape:pageopacity="0.0"
     inkscape:pageshadow="2"
     inkscape:zoom="0.24748737"
     inkscape:cx="-118.87223"
     inkscape:cy="744.44063"
     inkscape:document-units="px"
     inkscape:current-layer="layer3"
     showgrid="false"
     showguides="true"
     inkscape:guide-bbox="true"
     inkscape:window-width="1366"
     inkscape:window-height="706"
     inkscape:window-x="-8"
     inkscape:window-y="-8"
     inkscape:window-maximized="1" />
  <metadata
     id="metadata7">
    <rdf:RDF>
      <cc:Work
         rdf:about="">
        <dc:format>image/svg+xml</dc:format>
        <dc:type
           rdf:resource="http://purl.org/dc/dcmitype/StillImage" />
        <dc:title></dc:title>
      </cc:Work>
    </rdf:RDF>
  </metadata>
  <g
     inkscape:label="Layer 1"
     inkscape:groupmode="layer"
     id="layer1">
    <g
       id="g3823"
       transform="translate(74.285714,40)">
      <rect
         ry="0"
         rx="0"
         y="-480.62112"
         x="-509.45581"
         height="2100"
         width="1673.3894"
         id="rect2985"
         style="fill:#7c9ab6;fill-opacity:1;stroke:none" />
      <rect
         ry="0"
         rx="0"
         y="-482.51108"
         x="-509.45581"
         height="2100"
         width="1669.9614"
         id="rect2985-1"
         style="opacity:0.56372549;fill:url(#linearGradient3828);fill-opacity:1;stroke:none" />
      <rect
         ry="0"
         rx="0"
         y="-470.38922"
         x="-513.4964"
         height="2087.8782"
         width="1677.7363"
         id="rect2985-1-4"
         style="opacity:0.42156863;fill:url(#linearGradient3830);fill-opacity:1;stroke:none" />
    </g>
    <path
       transform="matrix(0.32201326,-0.29068527,0.26327752,0.28260234,87.562521,-267.8417)"
       sodipodi:type="star"
       style="fill:#f4f3bb;fill-opacity:1;stroke:none;filter:url(#filter3888)"
       id="path3836-8"
       sodipodi:sides="5"
       sodipodi:cx="-1331.4286"
       sodipodi:cy="166.6479"
       sodipodi:r1="66.63945"
       sodipodi:r2="33.319725"
       sodipodi:arg1="0.5404195"
       sodipodi:arg2="1.168738"
       inkscape:flatsided="false"
       inkscape:rounded="0.18"
       inkscape:randomized="0"
       d="m -1274.2857,200.93362 c -4.0983,6.83039 -36.7741,-6.74001 -44.1044,-3.62299 -7.3304,3.11702 -20.2255,36.06517 -27.988,34.27823 -7.7625,-1.78695 -4.9537,-37.05699 -10.1834,-43.06535 -5.2296,-6.00835 -40.55,-8.09082 -41.2493,-16.0256 -0.6992,-7.93478 33.7125,-16.16247 37.8108,-22.99286 4.0982,-6.83039 -4.8358,-41.06558 2.4945,-44.1826 7.3303,-3.11702 25.7892,27.06803 33.5517,28.85498 7.7625,1.78694 37.5613,-17.2891 42.791,-11.28074 5.2296,6.00835 -17.774,32.89143 -17.0747,40.82621 0.6993,7.93478 28.05,30.38033 23.9518,37.21072 z"
       inkscape:transform-center-x="-1.3795507"
       inkscape:transform-center-y="-2.043499" />
    <path
       inkscape:transform-center-y="-1.670523"
       inkscape:transform-center-x="-1.9829925"
       d="m -1274.2857,200.93362 c -4.0983,6.83039 -36.7741,-6.74001 -44.1044,-3.62299 -7.3304,3.11702 -20.2255,36.06517 -27.988,34.27823 -7.7625,-1.78695 -4.9537,-37.05699 -10.1834,-43.06535 -5.2296,-6.00835 -40.55,-8.09082 -41.2493,-16.0256 -0.6992,-7.93478 33.7125,-16.16247 37.8108,-22.99286 4.0982,-6.83039 -4.8358,-41.06558 2.4945,-44.1826 7.3303,-3.11702 25.7892,27.06803 33.5517,28.85498 7.7625,1.78694 37.5613,-17.2891 42.791,-11.28074 5.2296,6.00835 -17.774,32.89143 -17.0747,40.82621 0.6993,7.93478 28.05,30.38033 23.9518,37.21072 z"
       inkscape:randomized="0"
       inkscape:rounded="0.18"
       inkscape:flatsided="false"
       sodipodi:arg2="1.168738"
       sodipodi:arg1="0.5404195"
       sodipodi:r2="33.319725"
       sodipodi:r1="66.63945"
       sodipodi:cy="166.6479"
       sodipodi:cx="-1331.4286"
       sodipodi:sides="5"
       id="path4012"
       style="fill:#f4f3bb;fill-opacity:1;stroke:none;filter:url(#filter3888)"
       sodipodi:type="star"
       transform="matrix(0.36297843,-0.29038378,0.26358173,0.31907494,979.62496,-371.81051)" />
    <path
       inkscape:transform-center-y="-1.4243553"
       inkscape:transform-center-x="-2.3978323"
       d="m -1274.2857,200.93362 c -4.0983,6.83039 -36.7741,-6.74001 -44.1044,-3.62299 -7.3304,3.11702 -20.2255,36.06517 -27.988,34.27823 -7.7625,-1.78695 -4.9537,-37.05699 -10.1834,-43.06535 -5.2296,-6.00835 -40.55,-8.09082 -41.2493,-16.0256 -0.6992,-7.93478 33.7125,-16.16247 37.8108,-22.99286 4.0982,-6.83039 -4.8358,-41.06558 2.4945,-44.1826 7.3303,-3.11702 25.7892,27.06803 33.5517,28.85498 7.7625,1.78694 37.5613,-17.2891 42.791,-11.28074 5.2296,6.00835 -17.774,32.89143 -17.0747,40.82621 0.6993,7.93478 28.05,30.38033 23.9518,37.21072 z"
       inkscape:randomized="0"
       inkscape:rounded="0.18"
       inkscape:flatsided="false"
       sodipodi:arg2="1.168738"
       sodipodi:arg1="0.5404195"
       sodipodi:r2="33.319725"
       sodipodi:r1="66.63945"
       sodipodi:cy="166.6479"
       sodipodi:cx="-1331.4286"
       sodipodi:sides="5"
       id="path4014"
       style="fill:#f4f3bb;fill-opacity:1;stroke:none;filter:url(#filter3888)"
       sodipodi:type="star"
       transform="matrix(0.39205868,-0.29129977,0.26480365,0.34495021,788.73858,-270.4617)" />
    <path
       inkscape:transform-center-y="-2.3211394"
       inkscape:transform-center-x="-0.54861996"
       d="m -1274.2857,200.93362 c -4.0983,6.83039 -36.7741,-6.74001 -44.1044,-3.62299 -7.3304,3.11702 -20.2255,36.06517 -27.988,34.27823 -7.7625,-1.78695 -4.9537,-37.05699 -10.1834,-43.06535 -5.2296,-6.00835 -40.55,-8.09082 -41.2493,-16.0256 -0.6992,-7.93478 33.7125,-16.16247 37.8108,-22.99286 4.0982,-6.83039 -4.8358,-41.06558 2.4945,-44.1826 7.3303,-3.11702 25.7892,27.06803 33.5517,28.85498 7.7625,1.78694 37.5613,-17.2891 42.791,-11.28074 5.2296,6.00835 -17.774,32.89143 -17.0747,40.82621 0.6993,7.93478 28.05,30.38033 23.9518,37.21072 z"
       inkscape:randomized="0"
       inkscape:rounded="0.18"
       inkscape:flatsided="false"
       sodipodi:arg2="1.168738"
       sodipodi:arg1="0.5404195"
       sodipodi:r2="33.319725"
       sodipodi:r1="66.63945"
       sodipodi:cy="166.6479"
       sodipodi:cx="-1331.4286"
       sodipodi:sides="5"
       id="path4016"
       style="fill:#f4f3bb;fill-opacity:1;stroke:none;filter:url(#filter3888)"
       sodipodi:type="star"
       transform="matrix(0.32477515,-0.36641845,0.33073599,0.28400246,533.9814,-635.74424)" />
    <path
       inkscape:transform-center-y="-2.1117374"
       inkscape:transform-center-x="-0.72779939"
       d="m -1274.2857,200.93362 c -4.0983,6.83039 -36.7741,-6.74001 -44.1044,-3.62299 -7.3304,3.11702 -20.2255,36.06517 -27.988,34.27823 -7.7625,-1.78695 -4.9537,-37.05699 -10.1834,-43.06535 -5.2296,-6.00835 -40.55,-8.09082 -41.2493,-16.0256 -0.6992,-7.93478 33.7125,-16.16247 37.8108,-22.99286 4.0982,-6.83039 -4.8358,-41.06558 2.4945,-44.1826 7.3303,-3.11702 25.7892,27.06803 33.5517,28.85498 7.7625,1.78694 37.5613,-17.2891 42.791,-11.28074 5.2296,6.00835 -17.774,32.89143 -17.0747,40.82621 0.6993,7.93478 28.05,30.38033 23.9518,37.21072 z"
       inkscape:randomized="0"
       inkscape:rounded="0.18"
       inkscape:flatsided="false"
       sodipodi:arg2="1.168738"
       sodipodi:arg1="0.5404195"
       sodipodi:r2="33.319725"
       sodipodi:r1="66.63945"
       sodipodi:cy="166.6479"
       sodipodi:cx="-1331.4286"
       sodipodi:sides="5"
       id="path4018"
       style="fill:#f4f3bb;fill-opacity:1;stroke:none;filter:url(#filter3888)"
       sodipodi:type="star"
       transform="matrix(0.26929909,-0.28012969,0.2531438,0.23582221,1267.4676,-159.94212)" />
    <path
       inkscape:transform-center-y="-2.2952566"
       inkscape:transform-center-x="-1.095883"
       d="m -1274.2857,200.93362 c -4.0983,6.83039 -36.7741,-6.74001 -44.1044,-3.62299 -7.3304,3.11702 -20.2255,36.06517 -27.988,34.27823 -7.7625,-1.78695 -4.9537,-37.05699 -10.1834,-43.06535 -5.2296,-6.00835 -40.55,-8.09082 -41.2493,-16.0256 -0.6992,-7.93478 33.7125,-16.16247 37.8108,-22.99286 4.0982,-6.83039 -4.8358,-41.06558 2.4945,-44.1826 7.3303,-3.11702 25.7892,27.06803 33.5517,28.85498 7.7625,1.78694 37.5613,-17.2891 42.791,-11.28074 5.2296,6.00835 -17.774,32.89143 -17.0747,40.82621 0.6993,7.93478 28.05,30.38033 23.9518,37.21072 z"
       inkscape:randomized="0"
       inkscape:rounded="0.18"
       inkscape:flatsided="false"
       sodipodi:arg2="1.168738"
       sodipodi:arg1="0.5404195"
       sodipodi:r2="33.319725"
       sodipodi:r1="66.63945"
       sodipodi:cy="166.6479"
       sodipodi:cx="-1331.4286"
       sodipodi:sides="5"
       id="path4020"
       style="fill:#f4f3bb;fill-opacity:1;stroke:none;filter:url(#filter3888)"
       sodipodi:type="star"
       transform="matrix(0.30887146,-0.29859878,0.27013865,0.27079252,382.89646,-134.55476)" />
    <path
       inkscape:transform-center-y="-1.3913858"
       inkscape:transform-center-x="-1.9786729"
       d="m -1274.2857,200.93362 c -4.0983,6.83039 -36.7741,-6.74001 -44.1044,-3.62299 -7.3304,3.11702 -20.2255,36.06517 -27.988,34.27823 -7.7625,-1.78695 -4.9537,-37.05699 -10.1834,-43.06535 -5.2296,-6.00835 -40.55,-8.09082 -41.2493,-16.0256 -0.6992,-7.93478 33.7125,-16.16247 37.8108,-22.99286 4.0982,-6.83039 -4.8358,-41.06558 2.4945,-44.1826 7.3303,-3.11702 25.7892,27.06803 33.5517,28.85498 7.7625,1.78694 37.5613,-17.2891 42.791,-11.28074 5.2296,6.00835 -17.774,32.89143 -17.0747,40.82621 0.6993,7.93478 28.05,30.38033 23.9518,37.21072 z"
       inkscape:randomized="0"
       inkscape:rounded="0.18"
       inkscape:flatsided="false"
       sodipodi:arg2="1.168738"
       sodipodi:arg1="0.5404195"
       sodipodi:r2="33.319725"
       sodipodi:r1="66.63945"
       sodipodi:cy="166.6479"
       sodipodi:cx="-1331.4286"
       sodipodi:sides="5"
       id="path4022"
       style="fill:#f4f3bb;fill-opacity:1;stroke:none;filter:url(#filter3888)"
       sodipodi:type="star"
       transform="matrix(0.34050791,-0.2620708,0.2380626,0.29946678,1404.6877,-470.46875)" />
    <path
       inkscape:transform-center-y="-1.7994993"
       inkscape:transform-center-x="0.041433078"
       d="m -1274.2857,200.93362 c -4.0983,6.83039 -36.7741,-6.74001 -44.1044,-3.62299 -7.3304,3.11702 -20.2255,36.06517 -27.988,34.27823 -7.7625,-1.78695 -4.9537,-37.05699 -10.1834,-43.06535 -5.2296,-6.00835 -40.55,-8.09082 -41.2493,-16.0256 -0.6992,-7.93478 33.7125,-16.16247 37.8108,-22.99286 4.0982,-6.83039 -4.8358,-41.06558 2.4945,-44.1826 7.3303,-3.11702 25.7892,27.06803 33.5517,28.85498 7.7625,1.78694 37.5613,-17.2891 42.791,-11.28074 5.2296,6.00835 -17.774,32.89143 -17.0747,40.82621 0.6993,7.93478 28.05,30.38033 23.9518,37.21072 z"
       inkscape:randomized="0"
       inkscape:rounded="0.18"
       inkscape:flatsided="false"
       sodipodi:arg2="1.168738"
       sodipodi:arg1="0.5404195"
       sodipodi:r2="33.319725"
       sodipodi:r1="66.63945"
       sodipodi:cy="166.6479"
       sodipodi:cx="-1331.4286"
       sodipodi:sides="5"
       id="path4044"
       style="fill:#f4f3bb;fill-opacity:1;stroke:none;filter:url(#filter3888)"
       sodipodi:type="star"
       transform="matrix(0.41270922,0.20104682,-0.17320887,0.37021591,1351.625,-60.428515)" />
    <path
       inkscape:transform-center-y="-1.1229913"
       inkscape:transform-center-x="1.904841"
       d="m -1274.2857,200.93362 c -4.0983,6.83039 -36.7741,-6.74001 -44.1044,-3.62299 -7.3304,3.11702 -20.2255,36.06517 -27.988,34.27823 -7.7625,-1.78695 -4.9537,-37.05699 -10.1834,-43.06535 -5.2296,-6.00835 -40.55,-8.09082 -41.2493,-16.0256 -0.6992,-7.93478 33.7125,-16.16247 37.8108,-22.99286 4.0982,-6.83039 -4.8358,-41.06558 2.4945,-44.1826 7.3303,-3.11702 25.7892,27.06803 33.5517,28.85498 7.7625,1.78694 37.5613,-17.2891 42.791,-11.28074 5.2296,6.00835 -17.774,32.89143 -17.0747,40.82621 0.6993,7.93478 28.05,30.38033 23.9518,37.21072 z"
       inkscape:randomized="0"
       inkscape:rounded="0.18"
       inkscape:flatsided="false"
       sodipodi:arg2="1.168738"
       sodipodi:arg1="0.5404195"
       sodipodi:r2="33.319725"
       sodipodi:r1="66.63945"
       sodipodi:cy="166.6479"
       sodipodi:cx="-1331.4286"
       sodipodi:sides="5"
       id="path4046"
       style="fill:#f4f3bb;fill-opacity:1;stroke:none;filter:url(#filter3888)"
       sodipodi:type="star"
       transform="matrix(0.42290195,0.09051617,-0.07466882,0.37774478,422.84411,-136.98579)" />
    <path
       inkscape:transform-center-y="-2.4194369"
       inkscape:transform-center-x="-1.4482938"
       d="m -1274.2857,200.93362 c -4.0983,6.83039 -36.7741,-6.74001 -44.1044,-3.62299 -7.3304,3.11702 -20.2255,36.06517 -27.988,34.27823 -7.7625,-1.78695 -4.9537,-37.05699 -10.1834,-43.06535 -5.2296,-6.00835 -40.55,-8.09082 -41.2493,-16.0256 -0.6992,-7.93478 33.7125,-16.16247 37.8108,-22.99286 4.0982,-6.83039 -4.8358,-41.06558 2.4945,-44.1826 7.3303,-3.11702 25.7892,27.06803 33.5517,28.85498 7.7625,1.78694 37.5613,-17.2891 42.791,-11.28074 5.2296,6.00835 -17.774,32.89143 -17.0747,40.82621 0.6993,7.93478 28.05,30.38033 23.9518,37.21072 z"
       inkscape:randomized="0"
       inkscape:rounded="0.18"
       inkscape:flatsided="false"
       sodipodi:arg2="1.168738"
       sodipodi:arg1="0.5404195"
       sodipodi:r2="33.319725"
       sodipodi:r1="66.63945"
       sodipodi:cy="166.6479"
       sodipodi:cx="-1331.4286"
       sodipodi:sides="5"
       id="path4048"
       style="fill:#f4f3bb;fill-opacity:1;stroke:none;filter:url(#filter3888)"
       sodipodi:type="star"
       transform="matrix(0.35969995,-0.33277265,0.30127171,0.31556383,203.97211,-598.76203)" />
    <path
       inkscape:transform-center-y="-1.0015478"
       inkscape:transform-center-x="1.8667706"
       d="m -1274.2857,200.93362 c -4.0983,6.83039 -36.7741,-6.74001 -44.1044,-3.62299 -7.3304,3.11702 -20.2255,36.06517 -27.988,34.27823 -7.7625,-1.78695 -4.9537,-37.05699 -10.1834,-43.06535 -5.2296,-6.00835 -40.55,-8.09082 -41.2493,-16.0256 -0.6992,-7.93478 33.7125,-16.16247 37.8108,-22.99286 4.0982,-6.83039 -4.8358,-41.06558 2.4945,-44.1826 7.3303,-3.11702 25.7892,27.06803 33.5517,28.85498 7.7625,1.78694 37.5613,-17.2891 42.791,-11.28074 5.2296,6.00835 -17.774,32.89143 -17.0747,40.82621 0.6993,7.93478 28.05,30.38033 23.9518,37.21072 z"
       inkscape:randomized="0"
       inkscape:rounded="0.18"
       inkscape:flatsided="false"
       sodipodi:arg2="1.168738"
       sodipodi:arg1="0.5404195"
       sodipodi:r2="33.319725"
       sodipodi:r1="66.63945"
       sodipodi:cy="166.6479"
       sodipodi:cx="-1331.4286"
       sodipodi:sides="5"
       id="path4056"
       style="fill:#f4f3bb;fill-opacity:1;stroke:none;filter:url(#filter3888)"
       sodipodi:type="star"
       transform="matrix(0.40228851,0.08269587,-0.06799509,0.35928479,1392.8657,680.71351)" />
    <path
       inkscape:transform-center-y="-0.19557951"
       inkscape:transform-center-x="-1.9619558"
       d="m -1274.2857,200.93362 c -4.0983,6.83039 -36.7741,-6.74001 -44.1044,-3.62299 -7.3304,3.11702 -20.2255,36.06517 -27.988,34.27823 -7.7625,-1.78695 -4.9537,-37.05699 -10.1834,-43.06535 -5.2296,-6.00835 -40.55,-8.09082 -41.2493,-16.0256 -0.6992,-7.93478 33.7125,-16.16247 37.8108,-22.99286 4.0982,-6.83039 -4.8358,-41.06558 2.4945,-44.1826 7.3303,-3.11702 25.7892,27.06803 33.5517,28.85498 7.7625,1.78694 37.5613,-17.2891 42.791,-11.28074 5.2296,6.00835 -17.774,32.89143 -17.0747,40.82621 0.6993,7.93478 28.05,30.38033 23.9518,37.21072 z"
       inkscape:randomized="0"
       inkscape:rounded="0.18"
       inkscape:flatsided="false"
       sodipodi:arg2="1.168738"
       sodipodi:arg1="0.5404195"
       sodipodi:r2="33.319725"
       sodipodi:r1="66.63945"
       sodipodi:cy="166.6479"
       sodipodi:cx="-1331.4286"
       sodipodi:sides="5"
       id="path4058"
       style="fill:#f4f3bb;fill-opacity:1;stroke:none;filter:url(#filter3888)"
       sodipodi:type="star"
       transform="matrix(0.36069538,-0.20253418,0.18534357,0.31827044,555.98127,173.02882)" />
  </g>
  <g
     inkscape:groupmode="layer"
     id="layer3"
     inkscape:label="层#1">
    <g
       id="g4125"
       transform="matrix(0.73144653,0,0,0.71959858,1725.5947,-412.13027)">
      <path
         transform="matrix(1.1666667,0,0,1.1666667,-1278.8531,666.40009)"
         d="m 254.55844,-70.927444 c 0,147.283444 -119.39683,266.680264 -266.680271,266.680264 -147.283449,0 -266.680269,-119.39682 -266.680269,-266.680264 0,-147.283446 119.39682,-266.680266 266.680269,-266.680266 147.283441,0 266.680271,119.39682 266.680271,266.680266 z"
         sodipodi:ry="266.68027"
         sodipodi:rx="266.68027"
         sodipodi:cy="-70.927444"
         sodipodi:cx="-12.121831"
         id="path4064-8"
         style="opacity:0.5;fill:#f4f3a0;fill-opacity:1;stroke:none;filter:url(#filter4121)"
         sodipodi:type="arc" />
      <path
         transform="matrix(0.89393939,0,0,0.89393939,-1253.8748,647.05623)"
         d="m 254.55844,-70.927444 c 0,147.283444 -119.39683,266.680264 -266.680271,266.680264 -147.283449,0 -266.680269,-119.39682 -266.680269,-266.680264 0,-147.283446 119.39682,-266.680266 266.680269,-266.680266 147.283441,0 266.680271,119.39682 266.680271,266.680266 z"
         sodipodi:ry="266.68027"
         sodipodi:rx="266.68027"
         sodipodi:cy="-70.927444"
         sodipodi:cx="-12.121831"
         id="path4064-8-2"
         style="fill:#f4f3a0;fill-opacity:1;stroke:none"
         sodipodi:type="arc" />
    </g>
  </g>
  <g
     inkscape:groupmode="layer"
     id="layer2"
     inkscape:label="层" />
</svg>
