<?xml version="1.0" encoding="UTF-8" standalone="no"?>
<!-- Created with Inkscape (http://www.inkscape.org/) -->

<svg
   xmlns:dc="http://purl.org/dc/elements/1.1/"
   xmlns:cc="http://creativecommons.org/ns#"
   xmlns:rdf="http://www.w3.org/1999/02/22-rdf-syntax-ns#"
   xmlns:svg="http://www.w3.org/2000/svg"
   xmlns="http://www.w3.org/2000/svg"
   xmlns:sodipodi="http://sodipodi.sourceforge.net/DTD/sodipodi-0.dtd"
   xmlns:inkscape="http://www.inkscape.org/namespaces/inkscape"
   width="744.09448819"
   height="1052.3622047"
   id="svg2"
   version="1.1"
   inkscape:version="0.48.3.1 r9886"
   sodipodi:docname="新建文档 1">
  <defs
     id="defs4" />
  <sodipodi:namedview
     id="base"
     pagecolor="#ffffff"
     bordercolor="#666666"
     borderopacity="1.0"
     inkscape:pageopacity="0.0"
     inkscape:pageshadow="2"
     inkscape:zoom="0.35"
     inkscape:cx="304.7347"
     inkscape:cy="645.50236"
     inkscape:document-units="px"
     inkscape:current-layer="layer1"
     showgrid="false"
     inkscape:window-width="1366"
     inkscape:window-height="706"
     inkscape:window-x="-8"
     inkscape:window-y="-8"
     inkscape:window-maximized="1" />
  <metadata
     id="metadata7">
    <rdf:RDF>
      <cc:Work
         rdf:about="">
        <dc:format>image/svg+xml</dc:format>
        <dc:type
           rdf:resource="http://purl.org/dc/dcmitype/StillImage" />
        <dc:title></dc:title>
      </cc:Work>
    </rdf:RDF>
  </metadata>
  <g
     inkscape:label="Layer 1"
     inkscape:groupmode="layer"
     id="layer1">
    <path
       style="fill:#6cbebc;fill-opacity:1;stroke:#000000;stroke-width:29.8197403;stroke-miterlimit:4;stroke-opacity:1"
       d="m 822.87237,736.5707 c 0,207.4586 -230.98506,178.49422 -477.15047,178.49422 -246.165399,0 -454.29331,8.96436 -454.29331,-198.49422 0,-207.45861 208.127911,-552.7799 454.29331,-552.7799 246.16541,0 477.15047,365.32129 477.15047,572.7799 z"
       id="path2989"
       inkscape:connector-curvature="0"
       sodipodi:nodetypes="sssss" />
    <path
       style="fill:#000000;fill-opacity:1;stroke:#000000;stroke-width:23.49341011;stroke-miterlimit:4;stroke-opacity:1;stroke-dasharray:none"
       d="m 246.98504,474.76862 c -5.62489,-5.62488 -31.24084,10.74921 -59.176,37.2115 C 162.58952,489.24381 140.51976,475.8308 135.35055,481 c -5.18666,5.18667 8.3245,27.3976 31.20109,52.72365 -22.77455,25.24859 -36.22037,47.35081 -31.04641,52.52478 5.15642,5.15642 27.14027,-8.16954 52.28171,-30.80334 27.87322,26.37348 53.42922,42.64892 59.04342,37.03472 5.59588,-5.59588 -10.57026,-30.98935 -36.79165,-58.75616 26.32277,-27.83777 42.55442,-53.34693 36.94633,-58.95503 z"
       id="path3760"
       inkscape:connector-curvature="0" />
    <path
       style="fill:#000000;fill-opacity:1;stroke:#000000;stroke-width:23.49341011;stroke-miterlimit:4;stroke-opacity:1;stroke-dasharray:none"
       d="m 547.24534,467.79169 c -5.62489,-5.62488 -31.24084,10.74921 -59.176,37.2115 -25.21952,-22.73631 -47.28928,-36.14932 -52.45849,-30.98012 -5.18666,5.18667 8.3245,27.3976 31.20109,52.72365 -22.77455,25.24859 -36.22037,47.3508 -31.04641,52.52477 5.15642,5.15642 27.14027,-8.16954 52.28171,-30.80333 27.87322,26.37347 53.42922,42.64891 59.04342,37.03471 5.59588,-5.59588 -10.57026,-30.98934 -36.79165,-58.75615 26.32277,-27.83777 42.55442,-53.34693 36.94633,-58.95503 z"
       id="path3760-7"
       inkscape:connector-curvature="0" />
    <path
       style="fill:#000000;fill-opacity:1;stroke:#000000;stroke-width:23.22756958;stroke-miterlimit:4;stroke-opacity:1"
       d="m 520.00001,770.93359 c 0,7.80069 -74.83241,-26.96477 -167.14286,-26.96477 -92.31044,0 -167.14285,34.76546 -167.14285,26.96477 0,-7.80069 74.83241,-75.75815 167.14285,-75.75815 92.31045,0 167.14286,67.95746 167.14286,75.75815 z"
       id="path3801"
       inkscape:connector-curvature="0"
       sodipodi:nodetypes="sssss" />
    <g
       id="g3858"
       style="fill:#1a1a1a"
       transform="translate(277.14286,0)">
      <path
         transform="translate(-311.42857,0)"
         d="m 585.71429,368.07648 c 0,38.65993 -4.47715,70 -10,70 -5.52284,0 -10,-31.34007 -10,-70 0,-38.65994 4.47716,-70 10,-70 5.52285,0 10,31.34006 10,70 z"
         sodipodi:ry="70"
         sodipodi:rx="10"
         sodipodi:cy="368.07648"
         sodipodi:cx="575.71429"
         id="path3829"
         style="fill:#1a1a1a;fill-opacity:1;stroke:none"
         sodipodi:type="arc" />
      <path
         transform="translate(-272.85715,1.4285629)"
         d="m 585.71429,368.07648 c 0,38.65993 -4.47715,70 -10,70 -5.52284,0 -10,-31.34007 -10,-70 0,-38.65994 4.47716,-70 10,-70 5.52285,0 10,31.34006 10,70 z"
         sodipodi:ry="70"
         sodipodi:rx="10"
         sodipodi:cy="368.07648"
         sodipodi:cx="575.71429"
         id="path3829-0"
         style="fill:#1a1a1a;fill-opacity:1;stroke:none"
         sodipodi:type="arc" />
      <path
         transform="translate(-230.00001,-1.4285799)"
         d="m 585.71429,368.07648 c 0,38.65993 -4.47715,70 -10,70 -5.52284,0 -10,-31.34007 -10,-70 0,-38.65994 4.47716,-70 10,-70 5.52285,0 10,31.34006 10,70 z"
         sodipodi:ry="70"
         sodipodi:rx="10"
         sodipodi:cy="368.07648"
         sodipodi:cx="575.71429"
         id="path3829-9"
         style="fill:#1a1a1a;fill-opacity:1;stroke:none"
         sodipodi:type="arc" />
    </g>
  </g>
</svg>
